<?xml version="1.0" encoding="UTF-8"?>
<!-- Generator: Assembly 2.2 - http://assemblyapp.co -->
<svg version="1.1" xmlns="http://www.w3.org/2000/svg" xmlns:xlink="http://www.w3.org/1999/xlink" width="2048.00" height="2048.00" viewBox="0 0 2048.0 2048.0">		<g id="document" transform="matrix(1,0,0,1,1024.0,1024.0)">			<path d="M-231.39,-133.773 L-280.802,-315.752 L-463.986,-267.545 L-414.575,-84.3611 L-231.39,-133.773 Z M-231.39,133.773 L-414.575,84.3611 L-463.986,267.545 L-280.802,315.752 L-231.39,133.773 Z M0,267.545 L-133.773,401.318 L0,535.09 L133.773,401.318 L0,267.545 Z M231.39,133.773 L280.802,316.957 L463.986,267.545 L414.575,84.3611 L231.39,133.773 Z M231.39,-133.773 L414.575,-84.3611 L463.986,-267.545 L280.802,-315.752 L231.39,-133.773 Z M0,-267.545 L133.773,-401.318 L0,-535.09 L-133.773,-401.318 L0,-267.545 Z " fill="#000000" fill-opacity="1.00"/>		</g>	</svg>